<?xml version="1.0" encoding="UTF-8" standalone="no"?> <!-- Created with Inkscape (http://www.inkscape.org/) -->  <svg    xmlns:dc="http://purl.org/dc/elements/1.1/"    xmlns:cc="http://creativecommons.org/ns#"    xmlns:rdf="http://www.w3.org/1999/02/22-rdf-syntax-ns#"    xmlns:svg="http://www.w3.org/2000/svg"    xmlns="http://www.w3.org/2000/svg"    version="1.1"    width="504.01312"    height="576.85699"    id="svg2">   <defs      id="defs4">     <filter        style="color-interpolation-filters:sRGB"        id="filter3923">       <feTurbulence          numOctaves="4"          type="fractalNoise"          baseFrequency="0.59599999999999997"          id="feTurbulence3925" />       <feColorMatrix          values="2.7755575615628914e-017"          type="saturate"          id="feColorMatrix3931" />     </filter>     <filter        style="color-interpolation-filters:sRGB"        id="filter4062">       <feColorMatrix          type="luminanceToAlpha"          result="fbSourceGraphic"          id="feColorMatrix4064" />       <feColorMatrix          values="1 0 0 0 0 0 1 0 0 0 0 0 1 0 0 0 0 0 1 0 "          result="result6"          id="feColorMatrix4066" />       <feFlood          flood-color="rgb(9,96,77)"          result="result1"          flood-opacity="1"          id="feFlood4068" />       <feComposite          in2="result6"          operator="out"          result="result2"          id="feComposite4070" />       <feTurbulence          numOctaves="5"          baseFrequency="0.04"          type="fractalNoise"          id="feTurbulence4072" />       <feColorMatrix          result="result0"          values="1 0 0 0 0 0 1 0 0 0 0 0 1 0 0 -1.5 0 0 4.5 -1 "          id="feColorMatrix4074" />       <feComposite          in2="result0"          operator="out"          in="result0"          result="result4"          id="feComposite4076" />       <feColorMatrix          result="result7"          values="1 0 0 0 0 0 1 0 0 0 0 0 1 0 0 0 0 0 5 -1 "          id="feColorMatrix4078" />       <feComposite          in2="result2"          operator="arithmetic"          k1="1.5"          k2="0"          k3="1"          k4="0"          result="result5"          id="feComposite4080" />       <feComposite          in2="SourceGraphic"          operator="in"          in="result5"          result="fbSourceGraphic"          id="feComposite4082" />       <feColorMatrix          id="feColorMatrix4084"          values="0 0 0 -1 0 0 0 0 -1 0 0 0 0 -1 0 0 0 0 1 0"          in="fbSourceGraphic"          result="fbSourceGraphicAlpha" />       <feColorMatrix          in="fbSourceGraphic"          values="1 0 0 0 0 0 1 0 0 0 0 0 1 0 0 0 0 0 1 1 "          result="result6"          id="feColorMatrix4086" />       <feTurbulence          type="fractalNoise"          numOctaves="5"          baseFrequency="1"          seed="0"          result="result0"          id="feTurbulence4088" />       <feConvolveMatrix          targetY="2"          targetX="2"          kernelMatrix="-2 0 0 0 -2 0 -2 0 -2 0 0 0 -10 0 0 0 -2 0 -2 0 -2 0 0 0 -2 "          order="5 5"          result="result5"          id="feConvolveMatrix4090" />       <feColorMatrix          result="result4"          values="0"          type="saturate"          in="result5"          id="feColorMatrix4092" />       <feComposite          in2="result6"          operator="arithmetic"          k1="1.5"          k2="0.5"          k3="0.5"          k4="0"          in="result4"          result="result2"          id="feComposite4094" />       <feBlend          in2="result4"          mode="normal"          result="result7"          id="feBlend4096" />       <feComposite          in2="fbSourceGraphic"          operator="in"          result="result3"          id="feComposite4098" />     </filter>     <filter        style="color-interpolation-filters:sRGB"        id="filter4212">       <feTurbulence          result="result0"          seed="55"          baseFrequency="0.02"          numOctaves="7"          type="fractalNoise"          id="feTurbulence4214" />       <feDiffuseLighting          in="result0"          result="result1"          kernelUnitLength="1"          diffuseConstant="1"          surfaceScale="4"          id="feDiffuseLighting4216">         <feDistantLight            elevation="60"            azimuth="235"            id="feDistantLight4218" />       </feDiffuseLighting>       <feSpecularLighting          result="result3"          kernelUnitLength="1"          specularExponent="25"          specularConstant="1"          surfaceScale="3"          in="result0"          id="feSpecularLighting4220">         <feDistantLight            elevation="55"            azimuth="235"            id="feDistantLight4222" />       </feSpecularLighting>       <feComposite          in2="SourceGraphic"          operator="arithmetic"          k1="1"          k2="0"          k3="0"          k4="0"          in="result1"          result="result2"          id="feComposite4224" />       <feComposite          in2="result3"          operator="arithmetic"          k1="0"          k2="1"          k3="1"          k4="0"          in="result2"          result="result4"          id="feComposite4226" />       <feComposite          in2="SourceAlpha"          operator="in"          in="result4"          result="fbSourceGraphic"          id="feComposite4228" />       <feDisplacementMap          in2="result0"          scale="7"          xChannelSelector="R"          yChannelSelector="G"          id="feDisplacementMap4230" />     </filter>     <mask        id="mask4034">       <path          d="m 570.75849,295.48453 a 36.823128,36.823128 0 1 1 -73.64625,0 A 36.823128,36.823128 0 1 1 570.75849,295.48453 Z"          transform="matrix(2.0717215,0,0,2.0717215,-843.80059,-226.82703)"          id="path4036"          style="fill:#ffff00;stroke:#ffff00;stroke-width:0.96538073;stroke-linecap:round;stroke-linejoin:round;stroke-miterlimit:4;stroke-opacity:1;stroke-dasharray:none;stroke-dashoffset:1.7" />     </mask>   </defs>   <metadata      id="metadata7">     <rdf:RDF>       <cc:Work          rdf:about="">         <dc:format>image/svg+xml</dc:format>         <dc:type            rdf:resource="http://purl.org/dc/dcmitype/StillImage" />         <dc:title></dc:title>       </cc:Work>     </rdf:RDF>   </metadata>   <g      transform="translate(-5.342947,-5.9448481)"      id="layer1">     <g        transform="matrix(1.6077039,0,0,1.6077039,-650.66476,-251.79478)"        id="g4301" />     <g        transform="matrix(1.6077039,0,0,1.6077039,-650.66476,-251.79478)"        id="g4041">       <path          d="M 521.66096,308.2677 659.74769,228.54329 567.68987,175.39368 429.60315,255.11809 Z"          id="path3943"          style="fill:#333333;stroke:none" />       <path          d="m 467.96058,284.35037 3.06859,1.77166 15.34297,-8.85827 -3.06859,-1.77166 -15.34297,8.85827"          id="path3933"          style="fill:#ffffff;stroke:none" />       <path          d="m 498.64652,266.63383 3.06859,1.77166 15.34297,-8.85827 -3.06859,-1.77166 -15.34297,8.85827"          id="path3946"          style="fill:#ffffff;stroke:none" />       <path          d="m 529.33246,248.9173 3.06859,1.77166 15.34297,-8.85827 -3.06859,-1.77166 -15.34297,8.85827"          id="path3948"          style="fill:#ffffff;stroke:none" />       <path          d="m 560.0184,231.20076 3.06859,1.77166 15.34297,-8.85827 -3.06859,-1.77166 -15.34297,8.85827"          id="path3950"          style="fill:#ffffff;stroke:none" />       <path          d="m 521.66096,308.2677 0,3.5433 -92.05781,-53.1496 0,-3.54331"          id="path3952"          style="fill:#1a1a1a;stroke:none" />       <path          d="m 429.60315,272.83462 0,-14.17323 L 521.66096,311.811 521.66096,325.98423 Z"          id="path3958"          style="fill:#989898;fill-opacity:1;fill-rule:evenodd;stroke:none" />       <path          d="m 521.66096,308.2677 0,3.5433 138.08674,-79.72441 0,-3.54331"          id="path3972"          style="fill:#1a1a1a;stroke:none" />       <path          d="m 515.52378,304.72439 3.06859,1.77165 138.08673,-79.72441 -3.06859,-1.77166 -138.08673,79.72442"          id="path4232"          style="fill:#ffffff;stroke:none" />       <path          d="m 432.67174,256.88974 3.06859,1.77166 138.08673,-79.72441 -3.06859,-1.77165 -138.08673,79.7244"          id="path4234"          style="fill:#ffffff;stroke:none" />       <path          d="m 590.70434,213.48422 3.06859,1.77166 15.34297,-8.85827 -3.06859,-1.77166 -15.34297,8.85827"          id="path4238"          style="fill:#ffffff;stroke:none" />       <path          d="M 429.60315,255.11809 567.68988,175.39368 552.34691,166.53541 414.26018,246.25982 Z"          id="path4240"          style="fill:#97bb00;fill-opacity:1;stroke:none" />       <path          d="m 414.26018,246.25982 0,17.71653 15.34297,8.85827 0,-17.71653"          id="path4242"          style="fill:#552200;stroke:none" />       <g          transform="translate(30.685941,-70.866146)"          id="g4260">         <path            d="m 521.66097,290.55116 0,3.54331 30.68594,-17.71654 0,-3.54331"            id="path4248"            style="fill:none;stroke:#800000;stroke-width:1;stroke-linecap:round;stroke-linejoin:round;stroke-miterlimit:4;stroke-opacity:1;stroke-dasharray:2, 2;stroke-dashoffset:6.8" />         <path            d="m 521.66097,294.09447 -15.34297,-8.85827 0,-3.54331"            id="path4252"            style="fill:none;stroke:#800000;stroke-width:1;stroke-linecap:round;stroke-linejoin:round;stroke-miterlimit:4;stroke-opacity:1;stroke-dasharray:2, 2;stroke-dashoffset:6.8" />         <path            d="m 537.00394,263.97636 15.34297,8.85826 -30.68594,17.71654 L 506.318,281.69289 Z"            id="path4244"            style="fill:none;stroke:#ff0000;stroke-width:1;stroke-linecap:round;stroke-linejoin:round;stroke-miterlimit:4;stroke-opacity:1;stroke-dasharray:4, 4;stroke-dashoffset:1.7" />       </g>       <g          transform="translate(1.5709414e-6,-1.0048598e-6)"          id="g4265">         <path            d="m 521.66097,290.55116 0,3.54331 30.68594,-17.71654 0,-3.54331"            id="path4267"            style="fill:none;stroke:#800000;stroke-width:1;stroke-linecap:round;stroke-linejoin:round;stroke-miterlimit:4;stroke-opacity:1;stroke-dasharray:2, 2;stroke-dashoffset:6.8" />         <path            d="m 521.66097,294.09447 -15.34297,-8.85827 0,-3.54331"            id="path4269"            style="fill:none;stroke:#800000;stroke-width:1;stroke-linecap:round;stroke-linejoin:round;stroke-miterlimit:4;stroke-opacity:1;stroke-dasharray:2, 2;stroke-dashoffset:6.8" />         <path            d="m 537.00394,263.97636 15.34297,8.85826 -30.68594,17.71654 L 506.318,281.69289 Z"            id="path4271"            style="fill:none;stroke:#ff0000;stroke-width:1;stroke-linecap:round;stroke-linejoin:round;stroke-miterlimit:4;stroke-opacity:1;stroke-dasharray:4, 4;stroke-dashoffset:1.7" />       </g>       <path          d="m 475.63206,221.45666 15.34297,-8.85826 0,-17.71654 L 475.63206,203.74013 Z"          transform="translate(0,-2.6171874e-6)"          id="path4287"          style="fill:#b3b3b3;stroke:#000000;stroke-width:1;stroke-linecap:round;stroke-linejoin:round;stroke-miterlimit:4;stroke-opacity:1;stroke-dasharray:none" />       <path          d="m 469.49487,200.19682 6.13719,3.54331 15.34297,-8.85827 L 484.83784,191.33855 Z"          transform="translate(0,-2.6171874e-6)"          id="path4289"          style="fill:#e6e6e6;stroke:#000000;stroke-width:1;stroke-linecap:round;stroke-linejoin:round;stroke-miterlimit:4;stroke-opacity:1;stroke-dasharray:none" />       <path          d="m 469.49487,200.19682 6.13719,3.54331 -1e-5,17.71653 L 469.49486,217.91335 Z"          transform="translate(0,-2.6171874e-6)"          id="path4291"          style="fill:#808080;stroke:#000000;stroke-width:1;stroke-linecap:round;stroke-linejoin:round;stroke-miterlimit:4;stroke-opacity:1;stroke-dasharray:none" />       <path          d="m 659.7477,246.25982 0,-14.17323 L 521.66098,311.811 521.66098,325.98423 Z"          id="path4293"          style="fill:#989898;fill-opacity:1;fill-rule:evenodd;stroke:none" />       <path          d="m 570.75849,295.48453 a 36.823128,36.823128 0 1 1 -73.64625,0 A 36.823128,36.823128 0 1 1 570.75849,295.48453 Z"          transform="translate(-6.1372043,-15.56329)"          id="path4295"          style="fill:none;stroke:#ffff00;stroke-width:2;stroke-linecap:round;stroke-linejoin:round;stroke-miterlimit:4;stroke-opacity:1;stroke-dasharray:none;stroke-dashoffset:1.7" />       <path          d="m 545.64092,312.13941 5.49754,8.03111"          id="path4299"          style="fill:none;stroke:#ffff00;stroke-width:2;stroke-linecap:butt;stroke-linejoin:miter;stroke-miterlimit:4;stroke-opacity:1;stroke-dasharray:none" />       <path          d="m 423.46597,255.11809 61.37187,-35.43307 0,-14.17323"          id="path4306"          style="fill:none;stroke:#ffd5d5;stroke-width:1;stroke-linecap:butt;stroke-linejoin:miter;stroke-miterlimit:4;stroke-opacity:1;stroke-dasharray:1, 2;stroke-dashoffset:1.6" />       <path          d="m 484.83784,194.88187 0,-10.62992"          id="path4333"          style="fill:none;stroke:#000000;stroke-width:1px;stroke-linecap:round;stroke-linejoin:miter;stroke-opacity:1" />       <g          id="g3930">         <path            d="m 487.90642,184.25195 a 3.068594,3.068594 0 1 1 -6.13718,0 A 3.068594,3.068594 0 1 1 487.90642,184.25195 Z"            id="path4335"            style="fill:none;stroke:#000000;stroke-width:0.5;stroke-linecap:round;stroke-linejoin:round;stroke-miterlimit:4;stroke-opacity:1;stroke-dasharray:none;stroke-dashoffset:1.6" />         <path            d="m 490.97502,184.25195 a 6.137188,6.137188 0 1 1 -12.27438,0 A 6.137188,6.137188 0 1 1 490.97502,184.25195 Z"            id="path4339"            style="fill:none;stroke:#000000;stroke-width:0.5;stroke-linecap:round;stroke-linejoin:round;stroke-miterlimit:4;stroke-opacity:1;stroke-dasharray:none;stroke-dashoffset:1.6" />         <path            d="m 487.90642,184.25195 a 3.068594,3.068594 0 1 1 -6.13718,0 A 3.068594,3.068594 0 1 1 487.90642,184.25195 Z"            transform="matrix(1.5104607,0,0,1.5104607,-247.49065,-94.053379)"            id="path4341"            style="fill:none;stroke:#000000;stroke-width:0.32507774;stroke-linecap:round;stroke-linejoin:round;stroke-miterlimit:4;stroke-opacity:1;stroke-dasharray:none;stroke-dashoffset:1.6" />       </g>       <g          transform="matrix(1.3843184,0,0,1.3843184,-203.02239,-131.19149)"          id="g4097">         <g            transform="translate(323.73666,2.6574862)"            mask="url(#mask4034)"            id="g4007">           <g              id="g3985">             <path                d="m 276.17346,350.78738 -76.71485,44.29134 46.02891,26.5748 L 322.20236,377.36218 Z"                id="path3979"                style="fill:#333333;fill-opacity:1;stroke:none" />             <path                d="m 184.11564,379.13384 0,17.71653 61.37188,35.43307 0,-10.62992 -46.02891,-26.5748 L 199.45861,387.9921 Z"                id="path3975"                style="fill:#1a1a1a;fill-opacity:1;stroke:none" />             <path                d="m 245.48752,432.28344 92.05781,-53.1496 0,-17.71654 -15.34297,8.85827 0,7.08661 -76.71484,44.29134 0,10.62992"                id="path3977"                style="fill:#1a1a1a;fill-opacity:1;stroke:none" />             <path                d="m 230.14455,387.9921 15.34297,8.85827 -6.13719,3.54331 L 224.00736,391.53541 Z"                id="path3079"                style="fill:#ffff00;stroke:#000000;stroke-width:1px;stroke-linecap:butt;stroke-linejoin:miter;stroke-opacity:1" />             <path                d="m 288.44783,372.04722 6.13719,3.54331 -46.02891,26.5748"                id="path3081"                style="fill:none;stroke:#000000;stroke-width:1px;stroke-linecap:round;stroke-linejoin:round;stroke-opacity:1" />             <path                d="m 242.41892,398.62203 12.27438,7.08661"                id="path3083"                style="fill:none;stroke:#000000;stroke-width:1px;stroke-linecap:butt;stroke-linejoin:miter;stroke-opacity:1" />             <path                d="m 257.76189,389.76376 6.13719,3.5433"                id="path3085"                style="fill:none;stroke:#000000;stroke-width:1px;stroke-linecap:butt;stroke-linejoin:miter;stroke-opacity:1" />             <path                d="m 273.10486,380.90549 6.13719,3.54331"                id="path3087"                style="fill:none;stroke:#000000;stroke-width:1px;stroke-linecap:butt;stroke-linejoin:miter;stroke-opacity:1" />             <path                d="m 248.55611,405.70863 3.0686,1.77166 6.13719,-3.54331 L 254.6933,402.16533 Z"                id="path3889"                style="fill:#ff0000;stroke:#000000;stroke-width:1px;stroke-linecap:round;stroke-linejoin:round;stroke-opacity:1" />             <path                d="m 245.48752,379.13383 15.34297,8.85827 -6.13719,3.54331 L 239.35033,382.67714 Z"                id="path3891"                style="fill:#ffff00;stroke:#000000;stroke-width:1px;stroke-linecap:butt;stroke-linejoin:miter;stroke-opacity:1" />             <path                d="m 260.83049,370.27556 15.34297,8.85827 -6.13719,3.54331 L 254.6933,373.81887 Z"                id="path3893"                style="fill:#ffff00;stroke:#000000;stroke-width:1px;stroke-linecap:butt;stroke-linejoin:miter;stroke-opacity:1" />             <path                d="m 276.17346,361.4173 15.34297,8.85827 -6.13719,3.54331 L 270.03627,364.96061 Z"                id="path3895"                style="fill:#ffff00;stroke:#000000;stroke-width:1px;stroke-linecap:butt;stroke-linejoin:miter;stroke-opacity:1" />             <path                d="m 199.45861,387.9921 76.71485,-44.29133 46.0289,26.5748 15.34297,-8.85827 L 276.17346,325.98423 184.11564,379.13384 Z"                id="path3955"                style="fill:#333333;fill-opacity:1;stroke:none" />             <path                d="m 199.45861,395.07872 76.71485,-44.29134 0,-7.08661 L 199.45861,387.9921 Z"                id="path3981"                style="fill:#232323;fill-opacity:1;stroke:none" />             <path                d="m 322.20236,370.27557 -46.0289,-26.5748 0,7.08661 46.0289,26.5748 0,-7.08661"                id="path3983"                style="fill:#0d0d0d;fill-opacity:1;stroke:none" />             <path                d="M 276.17346,343.70077 199.45861,387.9921 245.48752,414.56691 322.20236,370.27557 Z"                id="path3973"                style="fill:none;stroke:#ff0000;stroke-width:1;stroke-linecap:round;stroke-linejoin:round;stroke-miterlimit:4;stroke-opacity:1;stroke-dasharray:6, 6;stroke-dashoffset:5.6" />           </g>           <path              d="m 184.11564,411.0236 0,-14.17323 61.37188,35.43307 L 245.48752,446.45667 Z"              id="path4003"              style="fill:#989898;fill-opacity:1;fill-rule:evenodd;stroke:none" />           <path              d="m 337.54533,393.30707 0,-14.17323 -92.05781,53.1496 L 245.48752,446.45667 Z"              id="path4005"              style="fill:#989898;fill-opacity:1;fill-rule:evenodd;stroke:none" />         </g>         <path            d="m 570.75849,295.48453 a 36.823128,36.823128 0 1 1 -73.64625,0 A 36.823128,36.823128 0 1 1 570.75849,295.48453 Z"            transform="matrix(2.0717215,0,0,2.0717215,-520.06393,-224.16954)"            id="path4297"            style="fill:none;stroke:#ffff00;stroke-width:0.96538073;stroke-linecap:round;stroke-linejoin:round;stroke-miterlimit:4;stroke-opacity:1;stroke-dasharray:none;stroke-dashoffset:1.7" />       </g>     </g>   </g> </svg>