<?xml version="1.0" encoding="UTF-8" standalone="no"?> <!-- Created with Inkscape (http://www.inkscape.org/) --><svg xmlns:dc="http://purl.org/dc/elements/1.1/" xmlns:cc="http://creativecommons.org/ns#" xmlns:rdf="http://www.w3.org/1999/02/22-rdf-syntax-ns#" xmlns:svg="http://www.w3.org/2000/svg" xmlns="http://www.w3.org/2000/svg" version="1.1" width="104.75321" height="299.83405" id="svg2"> <defs id="defs4" /> <metadata id="metadata7"> <rdf:RDF> <cc:Work rdf:about=""> <dc:format>image/svg+xml</dc:format> <dc:type rdf:resource="http://purl.org/dc/dcmitype/StillImage" /> <dc:title></dc:title> </cc:Work> </rdf:RDF> </metadata> <g transform="translate(-157.11416,50.843617)" id="layer1"> <g id="g10748"> <rect width="74.666939" height="74.666939" x="162.60112" y="162.35812" id="rect9260" style="fill:none;stroke:#000000;stroke-width:0.97391659;stroke-linecap:round;stroke-linejoin:round;stroke-miterlimit:4;stroke-opacity:1;stroke-dasharray:none;stroke-dashoffset:0" /> <g transform="matrix(0.64927773,0,0,0.64927773,0.28168773,86.157472)" id="g5185"> <path d="m 350,172.36218 a 20,20 0 1 1 -40,0 20,20 0 1 1 40,0 z" id="path4667" style="fill:#ffffff;fill-opacity:1;fill-rule:nonzero;stroke:#000000;stroke-width:1;stroke-linecap:square;stroke-linejoin:round;stroke-miterlimit:4;stroke-opacity:1;stroke-dasharray:none;stroke-dashoffset:0" /> <path d="m 325,159.36218 0,26" id="path5177" style="fill:none;stroke:#000000;stroke-width:1px;stroke-linecap:butt;stroke-linejoin:miter;stroke-opacity:1" /> <path d="m 325,167.36218 10,-10 0,-15" id="path5179" style="fill:none;stroke:#000000;stroke-width:1px;stroke-linecap:butt;stroke-linejoin:miter;stroke-opacity:1" /> <path d="m 325,177.36218 10,10 0,15" id="path5181" style="fill:none;stroke:#000000;stroke-width:1px;stroke-linecap:butt;stroke-linejoin:miter;stroke-opacity:1" /> <path d="m 325,172.36218 -25,0" id="path5183" style="fill:none;stroke:#000000;stroke-width:1px;stroke-linecap:butt;stroke-linejoin:miter;stroke-opacity:1" /> </g> <path d="m 214.65473,202.83613 1.83644,3.67287 -3.67287,-1.83643" id="path5204" style="fill:#000000;stroke:none" /> <path d="m 217.78972,217.54672 0,6.49278" id="path6029" style="fill:none;stroke:#000000;stroke-width:0.64927775px;stroke-linecap:round;stroke-linejoin:round;stroke-opacity:1" /> <path d="m 188.57223,224.0395 29.21749,0" id="path6031" style="fill:none;stroke:#000000;stroke-width:0.64927775px;stroke-linecap:round;stroke-linejoin:round;stroke-opacity:1" /> <path d="m 217.78972,178.59006 35.71028,0" id="path6033" style="fill:none;stroke:#000000;stroke-width:0.64927775px;stroke-linecap:round;stroke-linejoin:miter;stroke-opacity:1" /> <path d="m 195.065,198.06839 -6.49277,0" id="path6039" style="fill:none;stroke:#000000;stroke-width:0.64927775px;stroke-linecap:butt;stroke-linejoin:miter;stroke-opacity:1" /> <text x="166.5307" y="171.07251" id="text10030" xml:space="preserve" style="font-size:7.79133272px;font-style:normal;font-weight:normal;line-height:125%;letter-spacing:0px;word-spacing:0px;fill:#000000;fill-opacity:1;stroke:none;font-family:Sans"><tspan x="166.5307" y="171.07251" id="tspan10032" style="font-style:normal;font-variant:normal;font-weight:normal;font-stretch:normal;font-family:Calibri;-inkscape-font-specification:Calibri">IC</tspan></text> <path d="m 201.55778,224.0395 0,19.47833" id="path10036" style="fill:none;stroke:#000000;stroke-width:0.64927775px;stroke-linecap:butt;stroke-linejoin:miter;stroke-opacity:1" /> <path d="m 226.5,212.36218 a 1.5,1.5 0 1 1 -3,0 1.5,1.5 0 1 1 3,0 z" transform="matrix(0.64927773,0,0,0.64927773,55.470295,86.15747)" id="path10038" style="fill:#000000;stroke:none" /> <path d="m 198.13353,243.51783 6.8485,0" id="path10040" style="fill:none;stroke:#000000;stroke-width:0.94518626px;stroke-linecap:butt;stroke-linejoin:miter;stroke-opacity:1" /> <path d="m 188.57223,198.06839 -6.39549,-0.0129" id="path10046" style="fill:none;stroke:#000000;stroke-width:0.64927775;stroke-linecap:butt;stroke-linejoin:miter;stroke-miterlimit:4;stroke-opacity:1;stroke-dasharray:1.29855545, 0.64927773;stroke-dashoffset:0" /> <path d="m 188.57223,224.0395 -6.39549,-0.0129" id="path10048" style="fill:none;stroke:#000000;stroke-width:0.64927775;stroke-linecap:butt;stroke-linejoin:miter;stroke-miterlimit:4;stroke-opacity:1;stroke-dasharray:1.29855545, 0.64927773;stroke-dashoffset:0" /> </g> <g transform="translate(0,-89.999998)" id="g10769"> <rect width="74.666939" height="74.666939" x="162.60112" y="162.35812" id="rect10771" style="fill:none;stroke:#000000;stroke-width:0.97391659;stroke-linecap:round;stroke-linejoin:round;stroke-miterlimit:4;stroke-opacity:1;stroke-dasharray:none;stroke-dashoffset:0" /> <g transform="matrix(0.64927773,0,0,0.64927773,0.28168773,86.157472)" id="g10773"> <path d="m 350,172.36218 a 20,20 0 1 1 -40,0 20,20 0 1 1 40,0 z" id="path10775" style="fill:#ffffff;fill-opacity:1;fill-rule:nonzero;stroke:#000000;stroke-width:1;stroke-linecap:square;stroke-linejoin:round;stroke-miterlimit:4;stroke-opacity:1;stroke-dasharray:none;stroke-dashoffset:0" /> <path d="m 325,159.36218 0,26" id="path10777" style="fill:none;stroke:#000000;stroke-width:1px;stroke-linecap:butt;stroke-linejoin:miter;stroke-opacity:1" /> <path d="m 325,167.36218 10,-10 0,-15" id="path10779" style="fill:none;stroke:#000000;stroke-width:1px;stroke-linecap:butt;stroke-linejoin:miter;stroke-opacity:1" /> <path d="m 325,177.36218 10,10 0,15" id="path10781" style="fill:none;stroke:#000000;stroke-width:1px;stroke-linecap:butt;stroke-linejoin:miter;stroke-opacity:1" /> <path d="m 325,172.36218 -25,0" id="path10783" style="fill:none;stroke:#000000;stroke-width:1px;stroke-linecap:butt;stroke-linejoin:miter;stroke-opacity:1" /> </g> <path d="m 214.65473,202.83613 1.83644,3.67287 -3.67287,-1.83643" id="path10785" style="fill:#000000;stroke:none" /> <path d="m 217.78972,217.54672 0,6.49278" id="path10787" style="fill:none;stroke:#000000;stroke-width:0.64927775px;stroke-linecap:round;stroke-linejoin:round;stroke-opacity:1" /> <path d="m 188.57223,224.0395 29.21749,0" id="path10789" style="fill:none;stroke:#000000;stroke-width:0.64927775px;stroke-linecap:round;stroke-linejoin:round;stroke-opacity:1" /> <path d="m 217.78972,178.59006 35.71028,0" id="path10791" style="fill:none;stroke:#000000;stroke-width:0.64927775px;stroke-linecap:round;stroke-linejoin:miter;stroke-opacity:1" /> <path d="m 195.065,198.06839 -6.49277,0" id="path10793" style="fill:none;stroke:#000000;stroke-width:0.64927775px;stroke-linecap:butt;stroke-linejoin:miter;stroke-opacity:1" /> <text x="166.5307" y="171.07251" id="text10795" xml:space="preserve" style="font-size:7.79133272px;font-style:normal;font-weight:normal;line-height:125%;letter-spacing:0px;word-spacing:0px;fill:#000000;fill-opacity:1;stroke:none;font-family:Sans"><tspan x="166.5307" y="171.07251" id="tspan10797" style="font-style:normal;font-variant:normal;font-weight:normal;font-stretch:normal;font-family:Calibri;-inkscape-font-specification:Calibri">IC</tspan></text> <path d="m 201.55778,224.0395 0,19.47833" id="path10799" style="fill:none;stroke:#000000;stroke-width:0.64927775px;stroke-linecap:butt;stroke-linejoin:miter;stroke-opacity:1" /> <path d="m 226.5,212.36218 a 1.5,1.5 0 1 1 -3,0 1.5,1.5 0 1 1 3,0 z" transform="matrix(0.64927773,0,0,0.64927773,55.470295,86.15747)" id="path10801" style="fill:#000000;stroke:none" /> <path d="m 198.13353,243.51783 6.8485,0" id="path10803" style="fill:none;stroke:#000000;stroke-width:0.94518626px;stroke-linecap:butt;stroke-linejoin:miter;stroke-opacity:1" /> <path d="m 188.57223,198.06839 -6.39549,-0.0129" id="path10805" style="fill:none;stroke:#000000;stroke-width:0.64927775;stroke-linecap:butt;stroke-linejoin:miter;stroke-miterlimit:4;stroke-opacity:1;stroke-dasharray:1.29855545, 0.64927773;stroke-dashoffset:0" /> <path d="m 188.57223,224.0395 -6.39549,-0.0129" id="path10807" style="fill:none;stroke:#000000;stroke-width:0.64927775;stroke-linecap:butt;stroke-linejoin:miter;stroke-miterlimit:4;stroke-opacity:1;stroke-dasharray:1.29855545, 0.64927773;stroke-dashoffset:0" /> </g> <g transform="translate(0,-185)" id="g10809"> <rect width="74.666939" height="74.666939" x="162.60112" y="162.35812" id="rect10811" style="fill:none;stroke:#000000;stroke-width:0.97391659;stroke-linecap:round;stroke-linejoin:round;stroke-miterlimit:4;stroke-opacity:1;stroke-dasharray:none;stroke-dashoffset:0" /> <g transform="matrix(0.64927773,0,0,0.64927773,0.28168773,86.157472)" id="g10813"> <path d="m 350,172.36218 a 20,20 0 1 1 -40,0 20,20 0 1 1 40,0 z" id="path10815" style="fill:#ffffff;fill-opacity:1;fill-rule:nonzero;stroke:#000000;stroke-width:1;stroke-linecap:square;stroke-linejoin:round;stroke-miterlimit:4;stroke-opacity:1;stroke-dasharray:none;stroke-dashoffset:0" /> <path d="m 325,159.36218 0,26" id="path10817" style="fill:none;stroke:#000000;stroke-width:1px;stroke-linecap:butt;stroke-linejoin:miter;stroke-opacity:1" /> <path d="m 325,167.36218 10,-10 0,-15" id="path10819" style="fill:none;stroke:#000000;stroke-width:1px;stroke-linecap:butt;stroke-linejoin:miter;stroke-opacity:1" /> <path d="m 325,177.36218 10,10 0,15" id="path10821" style="fill:none;stroke:#000000;stroke-width:1px;stroke-linecap:butt;stroke-linejoin:miter;stroke-opacity:1" /> <path d="m 325,172.36218 -25,0" id="path10823" style="fill:none;stroke:#000000;stroke-width:1px;stroke-linecap:butt;stroke-linejoin:miter;stroke-opacity:1" /> </g> <path d="m 214.65473,202.83613 1.83644,3.67287 -3.67287,-1.83643" id="path10825" style="fill:#000000;stroke:none" /> <path d="m 217.78972,217.54672 0,6.49278" id="path10827" style="fill:none;stroke:#000000;stroke-width:0.64927775px;stroke-linecap:round;stroke-linejoin:round;stroke-opacity:1" /> <path d="m 188.57223,224.0395 29.21749,0" id="path10829" style="fill:none;stroke:#000000;stroke-width:0.64927775px;stroke-linecap:round;stroke-linejoin:round;stroke-opacity:1" /> <path d="m 217.78972,178.59006 35.71028,0" id="path10831" style="fill:none;stroke:#000000;stroke-width:0.64927775px;stroke-linecap:round;stroke-linejoin:miter;stroke-opacity:1" /> <path d="m 195.065,198.06839 -6.49277,0" id="path10833" style="fill:none;stroke:#000000;stroke-width:0.64927775px;stroke-linecap:butt;stroke-linejoin:miter;stroke-opacity:1" /> <text x="166.5307" y="171.07251" id="text10835" xml:space="preserve" style="font-size:7.79133272px;font-style:normal;font-weight:normal;line-height:125%;letter-spacing:0px;word-spacing:0px;fill:#000000;fill-opacity:1;stroke:none;font-family:Sans"><tspan x="166.5307" y="171.07251" id="tspan10837" style="font-style:normal;font-variant:normal;font-weight:normal;font-stretch:normal;font-family:Calibri;-inkscape-font-specification:Calibri">IC</tspan></text> <path d="m 201.55778,224.0395 0,19.47833" id="path10839" style="fill:none;stroke:#000000;stroke-width:0.64927775px;stroke-linecap:butt;stroke-linejoin:miter;stroke-opacity:1" /> <path d="m 226.5,212.36218 a 1.5,1.5 0 1 1 -3,0 1.5,1.5 0 1 1 3,0 z" transform="matrix(0.64927773,0,0,0.64927773,55.470295,86.15747)" id="path10841" style="fill:#000000;stroke:none" /> <path d="m 198.13353,243.51783 6.8485,0" id="path10843" style="fill:none;stroke:#000000;stroke-width:0.94518626px;stroke-linecap:butt;stroke-linejoin:miter;stroke-opacity:1" /> <path d="m 188.57223,198.06839 -6.39549,-0.0129" id="path10845" style="fill:none;stroke:#000000;stroke-width:0.64927775;stroke-linecap:butt;stroke-linejoin:miter;stroke-miterlimit:4;stroke-opacity:1;stroke-dasharray:1.29855545, 0.64927773;stroke-dashoffset:0" /> <path d="m 188.57223,224.0395 -6.39549,-0.0129" id="path10847" style="fill:none;stroke:#000000;stroke-width:0.64927775;stroke-linecap:butt;stroke-linejoin:miter;stroke-miterlimit:4;stroke-opacity:1;stroke-dasharray:1.29855545, 0.64927773;stroke-dashoffset:0" /> </g> <path d="m 100,148.85619 0,-251.06632" transform="translate(153.5,59.733876)" id="path10849" style="fill:none;stroke:#000000;stroke-width:1px;stroke-linecap:butt;stroke-linejoin:miter;stroke-opacity:1" /> <rect width="5" height="15" x="251" y="-35.659939" id="rect10851" style="fill:#ffffff;fill-opacity:1;fill-rule:nonzero;stroke:#000000;stroke-width:1;stroke-linecap:round;stroke-linejoin:round;stroke-miterlimit:4;stroke-opacity:1;stroke-dasharray:none;stroke-dashoffset:0" /> <path d="m 255,178.59006 a 1.5,1.5 0 1 1 -3,0 1.5,1.5 0 1 1 3,0 z" id="path10853" style="fill:#000000;stroke:none" /> <path d="m 255,88.590065 a 1.5,1.5 0 1 1 -3,0 1.5,1.5 0 1 1 3,0 z" id="path10855" style="fill:#000000;stroke:none" /> <path d="m 255,-6.4099383 a 1.5,1.5 0 1 1 -3,0 1.5,1.5 0 1 1 3,0 z" id="path10857" style="fill:#000000;stroke:none" /> <path d="m 250.63263,-42.476251 5.73474,0 -2.86737,-2.867366 z" id="path10859" style="fill:none;stroke:#000000;stroke-width:1;stroke-linecap:round;stroke-linejoin:round;stroke-miterlimit:4;stroke-opacity:1;stroke-dasharray:none" /> <path d="M 253.4871,214.89133 253.5,208.49584" id="path10046-1" style="fill:none;stroke:#000000;stroke-width:1;stroke-linecap:butt;stroke-linejoin:miter;stroke-miterlimit:4;stroke-opacity:1;stroke-dasharray:2, 1;stroke-dashoffset:0" /> </g> </svg>