<?xml version="1.0" encoding="UTF-8" standalone="no"?> <!-- Created with Inkscape (http://www.inkscape.org/) --><svg xmlns:dc="http://purl.org/dc/elements/1.1/" xmlns:cc="http://creativecommons.org/ns#" xmlns:rdf="http://www.w3.org/1999/02/22-rdf-syntax-ns#" xmlns:svg="http://www.w3.org/2000/svg" xmlns="http://www.w3.org/2000/svg" version="1.1" width="233.66211" height="188.85619" id="svg2"> <defs id="defs4" /> <metadata id="metadata7"> <rdf:RDF> <cc:Work rdf:about=""> <dc:format>image/svg+xml</dc:format> <dc:type rdf:resource="http://purl.org/dc/dcmitype/StillImage" /> <dc:title></dc:title> </cc:Work> </rdf:RDF> </metadata> <g transform="translate(-153.5,-59.733876)" id="layer1"> <rect width="115" height="115" x="159.25" y="117.86218" id="rect9260" style="fill:none;stroke:#000000;stroke-width:1.5;stroke-linecap:round;stroke-linejoin:round;stroke-miterlimit:4;stroke-opacity:1;stroke-dasharray:none;stroke-dashoffset:0" /> <g transform="translate(-90.75,0.500003)" id="g5185"> <path d="m 350,172.36218 a 20,20 0 1 1 -40,0 20,20 0 1 1 40,0 z" id="path4667" style="fill:#ffffff;fill-opacity:1;fill-rule:nonzero;stroke:#000000;stroke-width:1;stroke-linecap:square;stroke-linejoin:round;stroke-miterlimit:4;stroke-opacity:1;stroke-dasharray:none;stroke-dashoffset:0" /> <path d="m 325,159.36218 0,26" id="path5177" style="fill:none;stroke:#000000;stroke-width:1px;stroke-linecap:butt;stroke-linejoin:miter;stroke-opacity:1" /> <path d="m 325,167.36218 10,-10 0,-15" id="path5179" style="fill:none;stroke:#000000;stroke-width:1px;stroke-linecap:butt;stroke-linejoin:miter;stroke-opacity:1" /> <path d="m 325,177.36218 10,10 0,15" id="path5181" style="fill:none;stroke:#000000;stroke-width:1px;stroke-linecap:butt;stroke-linejoin:miter;stroke-opacity:1" /> <path d="m 325,172.36218 -25,0" id="path5183" style="fill:none;stroke:#000000;stroke-width:1px;stroke-linecap:butt;stroke-linejoin:miter;stroke-opacity:1" /> </g> <path d="m 175,88.856186 c -100,0 -105,50.000004 -105,90.000004 l 5,-10" transform="translate(153.5,59.733876)" id="path10713" style="fill:none;stroke:#800000;stroke-width:1px;stroke-linecap:butt;stroke-linejoin:miter;stroke-opacity:1" /> <path d="m 239.42157,180.20533 2.82843,5.65685 -5.65685,-2.82843" id="path5204" style="fill:#000000;stroke:none" /> <path d="m 244.25,202.86218 0,10" id="path6029" style="fill:none;stroke:#000000;stroke-width:1px;stroke-linecap:round;stroke-linejoin:round;stroke-opacity:1" /> <path d="m 199.25,212.86218 45,0" id="path6031" style="fill:none;stroke:#000000;stroke-width:1px;stroke-linecap:round;stroke-linejoin:round;stroke-opacity:1" /> <path d="m 244.25,142.86218 55,0" id="path6033" style="fill:none;stroke:#000000;stroke-width:1px;stroke-linecap:round;stroke-linejoin:miter;stroke-opacity:1" /> <path d="m 209.25,172.86218 -10,0" id="path6039" style="fill:none;stroke:#000000;stroke-width:1px;stroke-linecap:butt;stroke-linejoin:miter;stroke-opacity:1" /> <text x="165.30223" y="131.28384" id="text10030" xml:space="preserve" style="font-size:12px;font-style:normal;font-weight:normal;line-height:125%;letter-spacing:0px;word-spacing:0px;fill:#000000;fill-opacity:1;stroke:none;font-family:Sans"><tspan x="165.30223" y="131.28384" id="tspan10032" style="font-style:normal;font-variant:normal;font-weight:normal;font-stretch:normal;font-family:Calibri;-inkscape-font-specification:Calibri">IC</tspan></text> <path d="m 219.25,212.86218 0,30" id="path10036" style="fill:none;stroke:#000000;stroke-width:1px;stroke-linecap:butt;stroke-linejoin:miter;stroke-opacity:1" /> <path d="m 226.5,212.36218 a 1.5,1.5 0 1 1 -3,0 1.5,1.5 0 1 1 3,0 z" transform="translate(-5.75,0.5)" id="path10038" style="fill:#000000;stroke:none" /> <path d="m 213.97606,242.86218 10.54788,0" id="path10040" style="fill:none;stroke:#000000;stroke-width:1.45575035px;stroke-linecap:butt;stroke-linejoin:miter;stroke-opacity:1" /> <text x="349.25" y="142.86218" id="text10042" xml:space="preserve" style="font-size:12px;font-style:normal;font-weight:normal;line-height:125%;letter-spacing:0px;word-spacing:0px;fill:#000000;fill-opacity:1;stroke:none;font-family:Sans"><tspan x="349.25" y="142.86218" id="tspan10044" style="font-style:normal;font-variant:normal;font-weight:normal;font-stretch:normal;font-family:Calibri;-inkscape-font-specification:Calibri">output</tspan></text> <path d="m 199.25,172.86218 -9.85016,-0.0199" id="path10046" style="fill:none;stroke:#000000;stroke-width:1;stroke-linecap:butt;stroke-linejoin:miter;stroke-miterlimit:4;stroke-opacity:1;stroke-dasharray:2, 1;stroke-dashoffset:0" /> <path d="m 199.25,212.86218 -9.85016,-0.0199" id="path10048" style="fill:none;stroke:#000000;stroke-width:1;stroke-linecap:butt;stroke-linejoin:miter;stroke-miterlimit:4;stroke-opacity:1;stroke-dasharray:2, 1;stroke-dashoffset:0" /> <path d="m 300.75,142.86218 a 1.5,1.5 0 1 1 -3,0 1.5,1.5 0 1 1 3,0 z" transform="translate(0,-2.6171875e-6)" id="path10675" style="fill:#000000;stroke:none" /> <path d="m 135,23.856186 c 0,25 -5,55 40,55 l -10,-5" transform="translate(153.5,59.733876)" id="path10715" style="fill:none;stroke:#000080;stroke-width:1px;stroke-linecap:butt;stroke-linejoin:miter;stroke-opacity:1" /> <path d="m 299.25,142.86218 0,-15" id="path10677" style="fill:none;stroke:#000000;stroke-width:1px;stroke-linecap:butt;stroke-linejoin:miter;stroke-opacity:1" /> <rect width="10" height="30" x="135" y="-13.75" transform="translate(159.25,111.61218)" id="rect10679" style="fill:#ffffff;stroke:#000000;stroke-width:1;stroke-linecap:round;stroke-linejoin:round;stroke-miterlimit:4;stroke-opacity:1;stroke-dasharray:none;stroke-dashoffset:0" /> <path d="m 299.25,97.86218 0,-15" id="path10681" style="fill:none;stroke:#000000;stroke-width:1px;stroke-linecap:butt;stroke-linejoin:miter;stroke-opacity:1" /> <path d="m 145,-28.75 -10,0 5,-5 5,5" transform="translate(159.25,111.61218)" id="path10683" style="fill:none;stroke:#000000;stroke-width:1px;stroke-linecap:round;stroke-linejoin:round;stroke-opacity:1" /> <text x="133.63306" y="-38.28846" transform="translate(159.25,111.61218)" id="text10685" xml:space="preserve" style="font-size:12px;font-style:normal;font-weight:normal;line-height:125%;letter-spacing:0px;word-spacing:0px;fill:#000000;fill-opacity:1;stroke:none;font-family:Sans"><tspan x="133.63306" y="-38.28846" id="tspan10687">Vcc</tspan></text> <text x="309.25" y="117.86218" id="text10689" xml:space="preserve" style="font-size:12px;font-style:normal;font-weight:normal;line-height:125%;letter-spacing:0px;word-spacing:0px;fill:#000000;fill-opacity:1;stroke:none;font-family:Sans"><tspan x="309.25" y="117.86218" id="tspan10691">R<tspan id="tspan10693" style="font-size:65.00091553%;baseline-shift:sub">pull-up</tspan></tspan></text> <path d="m 140,31.25 40,0" transform="translate(159.25,111.61218)" id="path10695" style="fill:none;stroke:#000000;stroke-width:1px;stroke-linecap:butt;stroke-linejoin:miter;stroke-opacity:1" /> <path d="m 341.75,142.86218 a 2.5,2.5 0 0 1 -5,0 2.5,2.5 0 1 1 5,0 z" id="path6041" style="fill:#ffffff;fill-opacity:1;fill-rule:nonzero;stroke:#000000;stroke-width:1;stroke-linecap:round;stroke-linejoin:round;stroke-miterlimit:4;stroke-opacity:1;stroke-dasharray:none;stroke-dashoffset:0" /> <text x="193.91016" y="163.59006" id="text10697" xml:space="preserve" style="font-size:12px;font-style:normal;font-weight:normal;line-height:125%;letter-spacing:0px;word-spacing:0px;fill:#000000;fill-opacity:1;stroke:none;font-family:Sans"><tspan x="193.91016" y="163.59006" id="tspan10699" style="fill:#800000">1</tspan></text> <text x="333.08984" y="158.59006" id="text10701" xml:space="preserve" style="font-size:12px;font-style:normal;font-weight:normal;line-height:125%;letter-spacing:0px;word-spacing:0px;fill:#000000;fill-opacity:1;stroke:none;font-family:Sans"><tspan x="333.08984" y="158.59006" id="tspan10703" style="fill:#800000">0</tspan></text> <text x="193.5" y="188.59006" id="text10705" xml:space="preserve" style="font-size:12px;font-style:normal;font-weight:normal;line-height:125%;letter-spacing:0px;word-spacing:0px;fill:#000000;fill-opacity:1;stroke:none;font-family:Sans"><tspan x="193.5" y="188.59006" id="tspan10707" style="fill:#000080">0</tspan></text> <text x="333.5" y="133.59006" id="text10709" xml:space="preserve" style="font-size:12px;font-style:normal;font-weight:normal;line-height:125%;letter-spacing:0px;word-spacing:0px;fill:#000000;fill-opacity:1;stroke:none;font-family:Sans"><tspan x="333.5" y="133.59006" id="tspan10711" style="fill:#000080;stroke:none">1</tspan></text> </g> </svg>