<?xml version="1.0" encoding="UTF-8" standalone="no"?> <!-- Created with Inkscape (http://www.inkscape.org/) -->  <svg    xmlns:dc="http://purl.org/dc/elements/1.1/"    xmlns:cc="http://creativecommons.org/ns#"    xmlns:rdf="http://www.w3.org/1999/02/22-rdf-syntax-ns#"    xmlns:svg="http://www.w3.org/2000/svg"    xmlns="http://www.w3.org/2000/svg"    version="1.1"    width="153.42693"    height="77.931587"    id="svg4290">   <defs      id="defs4292">     <linearGradient        id="linearGradient3922">       <stop          id="stop3924"          style="stop-color:#000000;stop-opacity:1"          offset="0" />     </linearGradient>     <clipPath        id="clipPath390">       <path          d="m 485.22,612.72 55.26,0 0,-26.4 -55.26,0 L 485.22,612.72 Z"          id="path392"          style="clip-rule:evenodd" />     </clipPath>     <clipPath        id="clipPath396">       <path          d="m 479.22,616.44 67.32,0 0,-33.84 -67.32,0 L 479.22,616.44 Z"          id="path398"          style="clip-rule:evenodd" />     </clipPath>     <clipPath        id="clipPath402">       <path          d="m 0,792.03 612,0 0,-792 L 0,0.03 0,792.03 Z"          id="path404" />     </clipPath>   </defs>   <metadata      id="metadata4295">     <rdf:RDF>       <cc:Work          rdf:about="">         <dc:format>image/svg+xml</dc:format>         <dc:type            rdf:resource="http://purl.org/dc/dcmitype/StillImage" />         <dc:title></dc:title>       </cc:Work>     </rdf:RDF>   </metadata>   <g      transform="translate(-6.0269445,2.9572091)"      id="g3961">     <path        d="m 46.67324,21.703064 c 5.866367,12.86552 10.389379,23.17313 16.07224,35.64573 0.462706,1.01478 0.841284,1.91157 0.841284,1.99287 0,0.0905 -2.542624,0.14781 -6.560734,0.14781 l -6.560734,0 c -1.110178,-2.44058 -2.185269,-4.90431 -3.366614,-7.30848 -6.410924,-0.31677 -10.032601,-0.15156 -17.836842,-0.1159 -1.077251,2.53254 -2.230294,5.26685 -3.139983,7.42442 l -6.48433,0 c -5.773886,0 -6.484331,-0.0267 -6.484331,-0.24415 0,-0.13429 0.48597,-1.41793 1.079933,-2.85254 4.184261,-10.21188 8.84723,-21.67114 12.083053,-29.57077 1.743169,-4.25537 3.449897,-8.42282 3.792731,-9.26099 l 0.623334,-1.52396 6.693382,0 L 44.11901,16.037104 Z"        id="path3959"        style="fill:#000000;fill-opacity:1;fill-rule:nonzero" />     <path        d="m 30.422165,17.873624 c -0.342834,0.83818 -2.049562,5.00563 -3.792731,9.26099 -4.939185,11.86773 -7.713506,19.12344 -12.324527,30.15062 -0.375008,0.89386 -0.681833,1.68515 -0.681833,1.75842 0,0.0733 2.741744,0.13321 6.092766,0.13321 l 6.092765,0 c 0.824305,-1.95425 1.647242,-3.90909 2.476154,-5.86139 l 0.663831,-1.56303 c 6.121417,0.15017 12.417532,-0.36406 18.463377,0.116 1.252283,2.55904 2.120637,4.54962 3.366581,7.30844 l 6.167194,0 6.167194,0 -0.370677,-0.8206 C 56.817606,45.184474 49.940725,29.981044 44.602526,18.108094 l -0.790047,-1.75841 -6.383489,0 L 31.045499,16.349684 Z"        id="path3957"        style="fill:#000000;fill-opacity:1;fill-rule:nonzero" />     <path        d="m 37.743476,28.542744 c 1.972502,5.07944 3.801267,9.02202 5.881638,14.41762 l 0.104109,0.42983 c -3.990498,0 -7.980996,0 -11.971494,0 L 31.865,42.960364 c 2.320967,-5.17422 2.928019,-10.07561 5.60438,-14.57414 C 37.620133,28.385574 37.743476,28.456014 37.743476,28.542744 Z"        id="path3955"        style="fill:#000000;fill-opacity:1;fill-rule:nonzero" />     <path        d="m 37.127898,29.752704 c -1.666428,4.56982 -3.05667,8.18238 -4.779631,12.9732 l -0.107811,0.35168 c 3.439139,-0.19922 7.979612,0.38616 10.923007,-0.27353 -0.333549,-0.95599 -5.671259,-13.63367 -5.740931,-13.63538 C 37.375229,29.167514 37.242644,29.430324 37.127898,29.752704 Z"        id="path3953"        style="fill:#ffffff;fill-opacity:1;fill-rule:nonzero" />     <path        d="m 63.631745,16.232434 c 3.932078,8.25475 6.696347,17.28641 10.928077,25.3279 3.252502,-7.369 5.981603,-13.88168 9.39207,-21.85014 l 1.53898,-3.59498 c 4.339077,0.25253 9.221934,-0.52573 13.33674,0.14111 -7.935702,17.84115 -14.611117,32.1844 -22.31838,49.29674 -1.33468,2.96535 -1.9151,4.097041 -2.08426,4.063891 -0.13747,-0.0269 -0.97249,-1.662431 -2.018527,-3.953531 C 65.26807,48.740984 56.424532,31.680854 50.273555,16.289354 54.836346,15.985674 57.753291,15.561574 63.631745,16.232434 Z"        id="path3951"        style="fill:#000000;fill-opacity:1;fill-rule:nonzero" />     <path        d="m 50.78635,16.623194 c 8.2917,18.54749 14.795391,33.04098 21.962073,48.80582 0.839879,1.84829 1.576429,3.41486 1.636789,3.48126 0.0604,0.0664 0.90842,-1.65684 1.88457,-3.82944 7.148499,-16.2287 15.403665,-33.35371 22.08795,-48.65469 -4.419902,-0.0926 -7.790493,-0.0293 -12.55314,0.002 l -1.6059,3.75129 c -3.537235,7.78257 -5.869569,14.57774 -9.70216,22.27222 C 70.147958,33.184474 66.807638,24.798524 63.2365,16.349994 59.274424,16.562524 54.285369,15.946704 50.78635,16.623194 Z"        id="path3949"        style="fill:#000000;fill-opacity:1;fill-rule:nonzero" />     <path        d="m 124.27933,16.198044 c 6.44584,0.8355 10.04246,6.99537 10.09847,12.34331 -0.003,2.55192 -0.58301,4.52368 -1.92324,6.53406 -2.17548,3.26328 -6.26582,6.0795 -10.40067,7.16092 l -1.57936,0.41306 0.3582,1.03469 c 1.92967,5.55291 3.62595,9.88361 5.56105,15.66248 0,0.0891 -2.67544,0.1303 -6.85232,0.10547 l -6.85233,-0.0407 c -1.30303,-5.0149 -2.61131,-10.02845 -3.91099,-15.04422 -0.0835,-0.32957 -0.17139,-0.35168 -1.39822,-0.35168 -0.86262,0 -1.36051,0.0666 -1.45971,0.19538 -2.48218,5.36769 -4.28597,9.49407 -6.857658,15.27664 l -6.61745,10e-4 c -5.99382,9.3e-4 -6.61745,-0.0228 -6.61745,-0.25199 0,-0.13915 1.38484,-3.35705 3.07741,-7.15089 5.311306,-11.99209 11.234608,-25.14566 15.686918,-35.14977 l 0.39533,-0.89874 C 111.39074,16.334554 117.89158,15.593544 124.27933,16.198044 Z"        id="path3947"        style="fill:#000000;fill-opacity:1;fill-rule:nonzero" />     <path        d="m 104.90523,17.248414 c -5.673715,12.63353 -10.139621,22.72007 -15.165708,33.95696 -1.82671,4.08344 -3.35667,7.54752 -3.39991,7.69796 -0.0739,0.25725 0.29292,0.27347 6.16554,0.27251 l 6.24415,-10e-4 c 2.304458,-5.08242 4.473808,-10.23264 6.857658,-15.27664 0.1033,-0.13407 0.65974,-0.19538 1.77296,-0.19538 1.55169,0 1.62629,0.0153 1.71148,0.35168 1.38076,5.32171 2.43581,9.37325 3.91098,15.04422 l 6.46076,0.0408 c 3.55342,0.0225 6.46076,0.016 6.46076,-0.0142 -1.97621,-5.79933 -3.82252,-10.29171 -5.79516,-16.49371 0,-0.23146 0.30555,-0.36619 1.59563,-0.7036 4.1515,-1.08577 8.23789,-3.89654 10.41694,-7.16517 2.06866,-3.10304 2.48409,-6.76041 1.20377,-10.59796 -1.122,-3.36303 -3.94533,-6.20963 -7.18624,-7.24547 C 117.94293,16.015064 114.57002,16.351054 105.30056,16.349984 Z"        id="path3945"        style="fill:#000000;fill-opacity:1;fill-rule:nonzero" />     <path        d="m 119.35634,24.572944 c 1.83945,0.54444 2.93411,2.35391 2.77187,4.5819 -0.18909,2.59666 -1.91594,4.38619 -5.15726,5.34449 -0.97463,0.28815 -1.65556,0.3506 -4.47773,0.41069 -3.14105,0.0669 -3.3283,0.0548 -3.3283,-0.21382 0,-0.15657 1.00436,-2.55324 2.23192,-5.32594 l 2.23192,-5.04126 2.43843,-0.004 C 117.86239,24.322184 118.73004,24.387574 119.35634,24.572944 Z"        id="path3943"        style="fill:#000000;fill-opacity:1;fill-rule:nonzero" />     <path        d="m 111.72148,29.655884 -2.22053,5.01405 3.00366,-0.0732 c 3.24322,-0.079 4.41284,-0.29998 6.09796,-1.15213 3.23909,-1.63799 4.2342,-5.37277 2.01986,-7.58076 -1.01302,-1.01011 -1.83463,-1.23126 -4.55524,-1.22609 L 113.94201,24.641754 Z"        id="path3910"        style="fill:#ffffff;fill-opacity:1;fill-rule:nonzero" />     <g        transform="matrix(2.6105858,0,0,-2.6105858,-1258.5335,1601.745)"        id="g386">       <g          clip-path="url(#clipPath390)"          id="g388">         <g            clip-path="url(#clipPath396)"            id="g394">           <g              clip-path="url(#clipPath402)"              id="g400">             <path                d="m 532.739,606.769 2.4053,0 0,2.3194 -2.4053,0 L 532.739,606.769 Z"                id="path406"                style="fill:#ffffff;fill-opacity:1;fill-rule:nonzero;stroke:none" />             <g                transform="translate(536.07,609.033)"                id="g408">               <path                  d="m 0,0 1.103,0 c 0.542,0 0.598,-0.297 0.598,-0.56 0,-0.105 0.019,-0.595 0.075,-0.787 l 0.56,0 0,0.07 c -0.149,0.07 -0.149,0.14 -0.168,0.315 l -0.019,0.56 C 2.112,0.052 1.944,0.122 1.738,0.192 1.963,0.315 2.206,0.49 2.206,0.945 c 0,0.664 -0.542,0.857 -1.103,0.857 l -1.552,0 0,-3.149 0.449,0 L 0,0 z m 0,1.434 1.14,0 C 1.364,1.434 1.738,1.399 1.738,0.91 1.738,0.455 1.383,0.367 1.065,0.367 L 0,0.367 0,1.434"                  id="path410"                  style="fill:#231f20;fill-opacity:1;fill-rule:evenodd;stroke:none" />             </g>             <g                transform="scale(1.0337,0.96742)"                id="g412">               <g                  transform="translate(519.327,633.052)"                  id="g414">                 <path                    d="m 0,0 c 1.808,0 3.274,-1.465 3.274,-3.274 0,-1.807 -1.466,-3.272 -3.274,-3.272 -1.807,0 -3.272,1.465 -3.272,3.272 C -3.272,-1.465 -1.807,0 0,0 Z"                    id="path416"                    style="fill:none;stroke:#231f20;stroke-width:0.43700001;stroke-linecap:butt;stroke-linejoin:miter;stroke-miterlimit:2.61299992;stroke-opacity:1;stroke-dasharray:none" />               </g>             </g>           </g>         </g>       </g>     </g>   </g> </svg>
