<?xml version="1.0" encoding="UTF-8" standalone="no"?> <svg    xmlns:dc="http://purl.org/dc/elements/1.1/"    xmlns:cc="http://creativecommons.org/ns#"    xmlns:rdf="http://www.w3.org/1999/02/22-rdf-syntax-ns#"    xmlns:svg="http://www.w3.org/2000/svg"    xmlns="http://www.w3.org/2000/svg"    version="1.1"    width="349"    height="279.69998"    id="svg2">   <metadata      id="metadata8">     <rdf:RDF>       <cc:Work          rdf:about="">         <dc:format>image/svg+xml</dc:format>         <dc:type            rdf:resource="http://purl.org/dc/dcmitype/StillImage" />         <dc:title></dc:title>       </cc:Work>     </rdf:RDF>   </metadata>   <defs      id="defs6" />   <g      transform="translate(5,5)"      id="g3848">     <path        d="m 322.5,260.39999 c 0.20395,-0.33 1.83989,-0.6 3.63541,-0.6 l 3.26459,0 0,-12 c 0,-7.6 -0.22,-12 -0.6,-12 -0.33,0 -0.6,-0.405 -0.6,-0.9 0,-0.78095 -2.5,-0.9 -18.9,-0.9 l -18.9,0 0,4.8 0,4.8 -14.4,0 -14.4,0 0,-4.8 0,-4.8 -19.5,0 -19.5,0 0,4.5 0,4.5 -27,0 -27,0 0,4.5 0,4.5 -67.8,0 -67.8,0 0,-44.7 0,-44.7 -8.85,-0.13267 -8.85,-0.13268 8.85,-0.18336 8.85,-0.18337 0,-8.68395 0,-8.68397 -8.85,-0.13267 -8.85,-0.13268 8.85,-0.18336 8.85,-0.18337 0,-13.18395 0,-13.18396 -8.85,-0.13268 -8.85,-0.13267 8.85,-0.18337 8.85,-0.18337 0,-8.66791 0,-8.667922 -8.85,-0.183366 -8.85,-0.183366 8.85,-0.132678 8.85,-0.132672 0,-13.199999 0,-13.2 -8.85,-0.132672 -8.85,-0.132678 8.85,-0.183366 8.85,-0.183366 0,-4.183956 0,-4.183961 -8.85,-0.132672 -8.85,-0.132678 8.85,-0.183366 8.85,-0.183366 0,-4.183958 0,-4.18396 -8.85,-0.132674 -8.85,-0.132675 8.85,-0.183365 8.85,-0.183366 0,-7.049815 0,-7.049816 -2.392166,0.22813 c -2.15241,0.205265 -2.498187,0.04186 -3.45,-1.630351 L 26.1,36.607586 l -9.75,-0.0038 -9.75,-0.0038 0,-18 0,-17.99999902 108,0 108,0 0,98.69999602 0,98.699997 19.5,0 19.5,0 0,-4.8 0,-4.8 14.4,0 14.4,0 0,4.8 0,4.8 19.5,0 19.5,0 0,-13.15956 c 0,-12.70558 -0.0421,-13.17293 -1.2203,-13.54688 -3.72633,-1.18269 -4.65278,-5.31279 -1.82585,-8.13971 3.3834,-3.3834 8.44615,-1.37767 8.44615,3.34615 0,2.30151 -2.12506,5.1 -3.87273,5.1 -0.80888,0 -0.92727,1.72353 -0.92727,13.5 l 0,13.5 -19.8,0 -19.8,0 0,4.2 0,4.2 19.8,0 19.8,0 0,3.6 c 0,2.8 0.2,3.6 0.9,3.6 0.6,0 0.9,0.6 0.9,1.8 0,1.2 -0.3,1.8 -0.9,1.8 -0.66667,0 -0.9,0.7 -0.9,2.7 0,2 0.23333,2.7 0.9,2.7 0.6,0 0.9,0.6 0.9,1.8 0,1.2 -0.3,1.8 -0.9,1.8 -0.66667,0 -0.9,0.7 -0.9,2.7 0,2 0.23333,2.7 0.9,2.7 0.6,0 0.9,0.6 0.9,1.8 0,1.2 -0.3,1.8 -0.9,1.8 -0.77,0 -0.9,1.73334 -0.9,12 l 0,12 3.6,0 c 2,0 3.6,0.26666 3.6,0.6 0,0.36815 -2.91181,0.6 -7.53541,0.6 C 324.79377,260.99999 322.26031,260.78782 322.5,260.39999 z m -155.1,-121.2 0,-111.599991 -66.6,0 -66.6,0 0,111.599991 0,111.6 66.6,0 L 167.4,250.79999 z m 54.6,99 0,-4.2 -26.7,0 -26.7,0 0,4.2 0,4.2 26.7,0 L 222,242.39999 z m 66.6,-0.3 c 0,-3.90418 -0.62527,-4.83473 -2.19433,-3.26567 -0.34888,0.34888 -2.09038,0.55138 -3.87,0.45 -2.77423,-0.15804 -3.23567,-0.35546 -3.23567,-1.38433 0,-1.02887 0.46144,-1.22628 3.23567,-1.38432 1.77962,-0.10139 3.52112,0.10111 3.87,0.45 1.56906,1.56906 2.19433,0.6385 2.19433,-3.26568 0,-3.90418 -0.62527,-4.83473 -2.19433,-3.26567 -0.34888,0.34888 -2.09038,0.55138 -3.87,0.45 -2.77423,-0.15804 -3.23567,-0.35546 -3.23567,-1.38433 0,-1.02887 0.46144,-1.22628 3.23567,-1.38432 1.77962,-0.10139 3.52112,0.10111 3.87,0.45 1.60173,1.60172 2.19433,0.63878 2.19433,-3.56568 0,-4.20446 -0.5926,-5.1674 -2.19433,-3.56567 -0.34888,0.34888 -2.09038,0.55138 -3.87,0.45 -2.77423,-0.15804 -3.23567,-0.35546 -3.23567,-1.38433 0,-1.02887 0.46144,-1.22628 3.23567,-1.38432 1.77962,-0.10139 3.52112,0.10111 3.87,0.45 1.60173,1.60172 2.19433,0.63878 2.19433,-3.56568 0,-4.20446 -0.5926,-5.1674 -2.19433,-3.56567 -0.34888,0.34888 -2.09038,0.55138 -3.87,0.45 -2.77423,-0.15804 -3.23567,-0.35546 -3.23567,-1.38433 0,-1.02887 0.46144,-1.22628 3.23567,-1.38432 1.77962,-0.10139 3.52112,0.10111 3.87,0.45 1.60173,1.60172 2.19433,0.63878 2.19433,-3.56568 0,-4.20446 -0.5926,-5.1674 -2.19433,-3.56567 -0.34888,0.34888 -2.09038,0.55138 -3.87,0.45 -2.77423,-0.15804 -3.23567,-0.35546 -3.23567,-1.38433 0,-1.02887 0.46144,-1.22628 3.23567,-1.38432 1.77962,-0.10139 3.52112,0.10111 3.87,0.45 1.56906,1.56906 2.19433,0.6385 2.19433,-3.26568 l 0,-3.9 -12.6,0 -12.6,0 0,3.9 c 0,3.35556 0.15077,3.9 1.08,3.9 0.594,0 1.36633,-0.28633 1.71629,-0.63629 0.34997,-0.34996 1.95647,-0.55246 3.57,-0.45 2.47161,0.15695 2.93371,0.37531 2.93371,1.38629 0,1.01098 -0.4621,1.22935 -2.93371,1.3863 -1.61353,0.10246 -3.22003,-0.10004 -3.57,-0.45 -0.34996,-0.34997 -1.12229,-0.6363 -1.71629,-0.6363 -0.93714,0 -1.08,0.55556 -1.08,4.2 0,3.64444 0.14286,4.2 1.08,4.2 0.594,0 1.36633,-0.28633 1.71629,-0.63629 0.34997,-0.34996 1.95647,-0.55246 3.57,-0.45 2.47161,0.15695 2.93371,0.37531 2.93371,1.38629 0,1.01098 -0.4621,1.22935 -2.93371,1.3863 -1.61353,0.10246 -3.22003,-0.10004 -3.57,-0.45 -0.34996,-0.34997 -1.12229,-0.6363 -1.71629,-0.6363 -0.93714,0 -1.08,0.55556 -1.08,4.2 0,3.64444 0.14286,4.2 1.08,4.2 0.594,0 1.36633,-0.28633 1.71629,-0.63629 0.34997,-0.34996 1.95647,-0.55246 3.57,-0.45 2.47161,0.15695 2.93371,0.37531 2.93371,1.38629 0,1.01098 -0.4621,1.22935 -2.93371,1.3863 -1.61353,0.10246 -3.22003,-0.10004 -3.57,-0.45 -0.34996,-0.34997 -1.12229,-0.6363 -1.71629,-0.6363 -0.93714,0 -1.08,0.55556 -1.08,4.2 0,3.64444 0.14286,4.2 1.08,4.2 0.594,0 1.36633,-0.28633 1.71629,-0.63629 0.34997,-0.34996 1.95647,-0.55246 3.57,-0.45 2.47161,0.15695 2.93371,0.37531 2.93371,1.38629 0,1.01098 -0.4621,1.22935 -2.93371,1.3863 -1.61353,0.10246 -3.22003,-0.10004 -3.57,-0.45 -0.34996,-0.34997 -1.12229,-0.6363 -1.71629,-0.6363 -0.92923,0 -1.08,0.54445 -1.08,3.9 0,3.35556 0.15077,3.9 1.08,3.9 0.594,0 1.36633,-0.28633 1.71629,-0.63629 0.34997,-0.34996 1.95647,-0.55246 3.57,-0.45 2.47161,0.15695 2.93371,0.37531 2.93371,1.38629 0,1.01098 -0.4621,1.22935 -2.93371,1.3863 -1.61353,0.10246 -3.22003,-0.10004 -3.57,-0.45 -0.34996,-0.34997 -1.12229,-0.6363 -1.71629,-0.6363 -0.92923,0 -1.08,0.54445 -1.08,3.9 l 0,3.9 12.6,0 L 288.6,241.79999 z m -66.6,-8.7 0,-4.2 19.8,0 19.8,0 0,-4.2 0,-4.2 -19.8,0 -19.8,0 0,-9 0,-9 -4.2,0 -4.2,0 0,13.5 0,13.5 -22.5,0 -22.5,0 0,3.9 0,3.9 26.7,0 L 222,233.39999 z m 39.6,0.3 0,-3.9 -19.5,0 -19.5,0 0,3.9 0,3.9 19.5,0 L 261.6,233.39999 z m 66.94286,3.04286 c 0.47142,-0.47143 0.85714,-1.84072 0.85714,-3.04286 0,-3.96246 0.32605,-3.9 -20.35714,-3.9 l -18.64286,0 0,3.9 0,3.9 18.64286,0 C 324.4,233.39999 327.83678,233.24892 328.54286,232.54285 Z M 213,211.49999 l 0,-13.5 4.5,0 4.5,0 0,-98.399994 L 222,1.2 l -107.4,0 -107.4,0 0,17.399999 0,17.4 9.381197,0 c 9.33559,0 9.388237,-0.0076 10.829045,-1.562253 1.142546,-1.232827 1.879004,-1.511917 3.492547,-1.323546 l 2.044699,0.238707 0.176256,-3.326454 0.176256,-3.326454 67.65,-0.152575 67.65,-0.152574 0,4.802574 0,4.802575 9.15,0.133162 9.15,0.133163 -9.15,0.182465 -9.15,0.182465 0,4.184372 0,4.184372 9.15,0.133163 9.15,0.133163 -9.15,0.182465 -9.15,0.182465 0,4.168744 0,4.168745 9.15,0.182465 9.15,0.182464 -9.15,0.133163 -9.15,0.133163 0,4.2 0,4.2 9.15,0.133164 9.15,0.133164 -9.15,0.18246 -9.15,0.182466 0,4.184375 0,4.18437 9.15,0.133164 9.15,0.133164 -9.15,0.18246 -9.15,0.182466 0,4.184376 0,4.18437 9.15,0.133164 9.15,0.133164 -9.15,0.18246 -9.15,0.182466 0,17.684375 0,17.684374 9.15,0.13316 9.15,0.13316 -9.15,0.18246 -9.15,0.18247 0,4.18438 0,4.18437 9.15,0.13316 9.15,0.13316 -9.15,0.18246 -9.15,0.18247 0,4.18438 0,4.18436 9.15,0.13317 9.15,0.13316 -9.15,0.18246 -9.15,0.18247 0,4.16874 0,4.16875 9.15,0.18247 9.15,0.18246 -9.15,0.13316 -9.15,0.13316 0,4.18437 0,4.18438 9.15,0.18247 9.15,0.18246 -9.15,0.13316 -9.15,0.13316 0,4.18437 0,4.18438 9.15,0.18247 9.15,0.18246 -9.15,0.13316 -9.15,0.13316 0,4.18437 0,4.18438 9.15,0.18247 9.15,0.18246 -9.15,0.13316 -9.15,0.13316 0,4.2 0,4.2 9.15,0.13317 9.15,0.13316 -9.15,0.18246 -9.15,0.18247 0,8.68437 0,8.68437 9.15,0.13317 9.15,0.13316 -9.15,0.18246 -9.15,0.18247 0,4.18437 0,4.18437 9.15,0.13317 9.15,0.13316 -9.15,0.18246 -9.15,0.18247 0,4.18437 0,4.18437 9.15,0.13317 9.15,0.13316 -9.15,0.18246 -9.15,0.18247 0,4.18437 0,4.18437 22.2,0 L 213,224.99999 z m 115.2,12.6 c 0,-0.495 0.27,-0.9 0.6,-0.9 0.9241,0 0.71027,-4.77544 -0.25714,-5.74286 -0.70608,-0.70607 -4.14286,-0.85714 -19.5,-0.85714 l -18.64286,0 0,4.2 0,4.2 18.9,0 C 325.7,224.99999 328.2,224.88095 328.2,224.09999 z m -66.6,-12.3 0,-4.2 -6.45,-0.12743 -6.45,-0.12742 6.45,-0.19287 6.45,-0.19287 0,-4.17971 0,-4.1797 -19.5,0 -19.5,0 0,8.7 0,8.7 19.5,0 L 261.6,215.99999 z m 66.96477,3.15 c 0.43839,-0.5775 0.80565,-2.4675 0.81615,-4.2 l 0.0191,-3.15 -19.5,0 -19.5,0 0,4.2 0,4.2 18.68386,0 C 326.17436,215.99999 327.83568,215.91045 328.56477,214.94999 z m 3.83523,-45.75 c 1.5385,-1.53849 1.52929,-3.62027 -0.0234,-5.28686 -1.59767,-1.7149 -3.28208,-1.66223 -5.10389,0.15959 -1.90101,1.90101 -1.86633,3.53057 0.10818,5.08373 C 329.36882,170.72014 330.86686,170.73313 332.4,169.19999 Z M 32.28,38.879999 C 32.676,38.483999 33,37.274142 33,36.19143 33,34.607622 32.715286,34.151402 31.543303,33.857254 28.151011,33.005842 26.081509,35.408837 27.864075,38.129376 28.898717,39.70844 31.08067,40.079329 32.28,38.879999 Z"        id="path3850"        style="fill:#000000" />     <text        x="253.36694"        y="195.29362"        id="text3846"        xml:space="preserve"        style="font-size:40px;font-style:normal;font-weight:normal;line-height:125%;letter-spacing:0px;word-spacing:0px;fill:#000000;fill-opacity:1;stroke:none;font-family:sans-serif"><tspan          x="253.36694"          y="195.29362"          id="tspan3848"          style="font-size:7.5px">1</tspan></text>     <text        x="253.36694"        y="232.87462"        id="text3854"        xml:space="preserve"        style="font-size:40px;font-style:normal;font-weight:normal;line-height:125%;letter-spacing:0px;word-spacing:0px;fill:#000000;fill-opacity:1;stroke:none;font-family:sans-serif"><tspan          x="253.36694"          y="232.87462"          id="tspan3856"          style="font-size:7.5px">9</tspan></text>     <text        x="253.36694"        y="223.48212"        id="text3858"        xml:space="preserve"        style="font-size:40px;font-style:normal;font-weight:normal;line-height:125%;letter-spacing:0px;word-spacing:0px;fill:#000000;fill-opacity:1;stroke:none;font-family:sans-serif"><tspan          x="253.36694"          y="223.48212"          id="tspan3860"          style="font-size:7.5px">7</tspan></text>     <text        x="253.36694"        y="214.03285"        id="text3862"        xml:space="preserve"        style="font-size:40px;font-style:normal;font-weight:normal;line-height:125%;letter-spacing:0px;word-spacing:0px;fill:#000000;fill-opacity:1;stroke:none;font-family:sans-serif"><tspan          x="253.36694"          y="214.03285"          id="tspan3864"          style="font-size:7.5px">5</tspan></text>     <text        x="253.36694"        y="204.68613"        id="text3866"        xml:space="preserve"        style="font-size:40px;font-style:normal;font-weight:normal;line-height:125%;letter-spacing:0px;word-spacing:0px;fill:#000000;fill-opacity:1;stroke:none;font-family:sans-serif"><tspan          x="253.36694"          y="204.68613"          id="tspan3868"          style="font-size:7.5px">3</tspan></text>     <text        x="293.36694"        y="195.29362"        id="text3870"        xml:space="preserve"        style="font-size:40px;font-style:normal;font-weight:normal;line-height:125%;letter-spacing:0px;word-spacing:0px;fill:#000000;fill-opacity:1;stroke:none;font-family:sans-serif"><tspan          x="293.36694"          y="195.29362"          id="tspan3872"          style="font-size:7.5px">2</tspan></text>     <text        x="293.36694"        y="232.87462"        id="text3874"        xml:space="preserve"        style="font-size:40px;font-style:normal;font-weight:normal;line-height:125%;letter-spacing:0px;word-spacing:0px;fill:#000000;fill-opacity:1;stroke:none;font-family:sans-serif"><tspan          x="293.36694"          y="232.87462"          id="tspan3876"          style="font-size:7.5px">10</tspan></text>     <text        x="293.36694"        y="223.48212"        id="text3878"        xml:space="preserve"        style="font-size:40px;font-style:normal;font-weight:normal;line-height:125%;letter-spacing:0px;word-spacing:0px;fill:#000000;fill-opacity:1;stroke:none;font-family:sans-serif"><tspan          x="293.36694"          y="223.48212"          id="tspan3880"          style="font-size:7.5px">8</tspan></text>     <text        x="293.36694"        y="214.03285"        id="text3882"        xml:space="preserve"        style="font-size:40px;font-style:normal;font-weight:normal;line-height:125%;letter-spacing:0px;word-spacing:0px;fill:#000000;fill-opacity:1;stroke:none;font-family:sans-serif"><tspan          x="293.36694"          y="214.03285"          id="tspan3884"          style="font-size:7.5px">6</tspan></text>     <text        x="293.36694"        y="204.68613"        id="text3886"        xml:space="preserve"        style="font-size:40px;font-style:normal;font-weight:normal;line-height:125%;letter-spacing:0px;word-spacing:0px;fill:#000000;fill-opacity:1;stroke:none;font-family:sans-serif"><tspan          x="293.36694"          y="204.68613"          id="tspan3888"          style="font-size:7.5px">4</tspan></text>     <text        x="326.75961"        y="169.00201"        id="text3890"        xml:space="preserve"        style="font-size:40px;font-style:normal;font-weight:normal;line-height:125%;letter-spacing:0px;word-spacing:0px;fill:#000000;fill-opacity:1;stroke:none;font-family:sans-serif"><tspan          x="326.75961"          y="169.00201"          id="tspan3892"          style="font-size:7.5px">+</tspan></text>     <text        x="322.77893"        y="160.51685"        id="text3894"        xml:space="preserve"        style="font-size:40px;font-style:normal;font-weight:normal;line-height:125%;letter-spacing:0px;word-spacing:0px;fill:#000000;fill-opacity:1;stroke:none;font-family:sans-serif"><tspan          x="322.77893"          y="160.51685"          id="tspan3896"          style="font-size:7.5px">+5V</tspan></text>     <text        x="321.20761"        y="267.36713"        id="text3898"        xml:space="preserve"        style="font-size:40px;font-style:normal;font-weight:normal;line-height:125%;letter-spacing:0px;word-spacing:0px;fill:#000000;fill-opacity:1;stroke:none;font-family:sans-serif"><tspan          x="321.20761"          y="267.36713"          id="tspan3900"          style="font-size:7.5px">GND</tspan></text>     <text        x="169.53635"        y="232.23685"        id="text3906"        xml:space="preserve"        style="font-size:40px;font-style:normal;font-weight:normal;line-height:125%;letter-spacing:0px;word-spacing:0px;fill:#000000;fill-opacity:1;stroke:none;font-family:sans-serif"><tspan          x="169.53635"          y="232.23685"          id="tspan3908"          style="font-size:7.5px">18</tspan></text>     <text        x="169.45212"        y="223.0972"        id="text3910"        xml:space="preserve"        style="font-size:40px;font-style:normal;font-weight:normal;line-height:125%;letter-spacing:0px;word-spacing:0px;fill:#000000;fill-opacity:1;stroke:none;font-family:sans-serif"><tspan          x="169.45212"          y="223.0972"          id="tspan3912"          style="font-size:7.5px">17</tspan></text>     <text        x="169.47226"        y="241.27032"        id="text3922"        xml:space="preserve"        style="font-size:40px;font-style:normal;font-weight:normal;line-height:125%;letter-spacing:0px;word-spacing:0px;fill:#000000;fill-opacity:1;stroke:none;font-family:sans-serif"><tspan          x="169.47226"          y="241.27032"          id="tspan3924"          style="font-size:7.5px">19</tspan></text>     <text        x="125.53635"        y="236.23685"        id="text3954"        xml:space="preserve"        style="font-size:40px;font-style:normal;font-weight:normal;line-height:125%;letter-spacing:0px;word-spacing:0px;fill:#000000;fill-opacity:1;stroke:none;font-family:sans-serif"><tspan          x="125.53635"          y="236.23685"          id="tspan3956"          style="font-size:7.5px">PB4(MISO)</tspan></text>     <text        x="125.45212"        y="227.0972"        id="text3958"        xml:space="preserve"        style="font-size:40px;font-style:normal;font-weight:normal;line-height:125%;letter-spacing:0px;word-spacing:0px;fill:#000000;fill-opacity:1;stroke:none;font-family:sans-serif"><tspan          x="125.45212"          y="227.0972"          id="tspan3960"          style="font-size:7.5px">PB3(MOSI)</tspan></text>     <text        x="125.47226"        y="245.27032"        id="text3970"        xml:space="preserve"        style="font-size:40px;font-style:normal;font-weight:normal;line-height:125%;letter-spacing:0px;word-spacing:0px;fill:#000000;fill-opacity:1;stroke:none;font-family:sans-serif"><tspan          x="125.47226"          y="245.27032"          id="tspan3972"          style="font-size:7.5px">PB5(SCK)</tspan></text>     <text        x="20.629248"        y="34.11058"        id="text3978"        xml:space="preserve"        style="font-size:40px;font-style:normal;font-weight:normal;line-height:125%;letter-spacing:0px;word-spacing:0px;fill:#000000;fill-opacity:1;stroke:none;font-family:sans-serif"><tspan          x="20.629248"          y="34.11058"          id="tspan3980"          style="font-size:7.5px">1</tspan></text>     <text        x="18.408178"        y="52.529602"        id="text3982"        xml:space="preserve"        style="font-size:40px;font-style:normal;font-weight:normal;line-height:125%;letter-spacing:0px;word-spacing:0px;fill:#000000;fill-opacity:1;stroke:none;font-family:sans-serif"><tspan          x="18.408178"          y="52.529602"          id="tspan3984"          style="font-size:7.5px">22</tspan></text>     <text        x="18.378881"        y="62.529602"        id="text3986"        xml:space="preserve"        style="font-size:40px;font-style:normal;font-weight:normal;line-height:125%;letter-spacing:0px;word-spacing:0px;fill:#000000;fill-opacity:1;stroke:none;font-family:sans-serif"><tspan          x="18.378881"          y="62.529602"          id="tspan3988"          style="font-size:7.5px">21</tspan></text>     <text        x="18.281836"        y="71.691559"        id="text3990"        xml:space="preserve"        style="font-size:40px;font-style:normal;font-weight:normal;line-height:125%;letter-spacing:0px;word-spacing:0px;fill:#000000;fill-opacity:1;stroke:none;font-family:sans-serif"><tspan          x="18.281836"          y="71.691559"          id="tspan3992"          style="font-size:7.5px">20</tspan></text>     <text        x="20.722631"        y="98.089859"        id="text3994"        xml:space="preserve"        style="font-size:40px;font-style:normal;font-weight:normal;line-height:125%;letter-spacing:0px;word-spacing:0px;fill:#000000;fill-opacity:1;stroke:none;font-family:sans-serif"><tspan          x="20.722631"          y="98.089859"          id="tspan3996"          style="font-size:7.5px">9</tspan></text>     <text        x="18.144506"        y="116.52677"        id="text3998"        xml:space="preserve"        style="font-size:40px;font-style:normal;font-weight:normal;line-height:125%;letter-spacing:0px;word-spacing:0px;fill:#000000;fill-opacity:1;stroke:none;font-family:sans-serif"><tspan          x="18.144506"          y="116.52677"          id="tspan4000"          style="font-size:7.5px">10</tspan></text>     <text        x="20.696997"        y="142.08986"        id="text4002"        xml:space="preserve"        style="font-size:40px;font-style:normal;font-weight:normal;line-height:125%;letter-spacing:0px;word-spacing:0px;fill:#000000;fill-opacity:1;stroke:none;font-family:sans-serif"><tspan          x="20.696997"          y="142.08986"          id="tspan4004"          style="font-size:7.5px">8</tspan></text>     <text        x="20.707983"        y="160.52676"        id="text4006"        xml:space="preserve"        style="font-size:40px;font-style:normal;font-weight:normal;line-height:125%;letter-spacing:0px;word-spacing:0px;fill:#000000;fill-opacity:1;stroke:none;font-family:sans-serif"><tspan          x="20.707983"          y="160.52676"          id="tspan4008"          style="font-size:7.5px">7</tspan></text>     <text        x="36.62925"        y="38.11058"        id="text4010"        xml:space="preserve"        style="font-size:40px;font-style:normal;font-weight:normal;line-height:125%;letter-spacing:0px;word-spacing:0px;fill:#000000;fill-opacity:1;stroke:none;font-family:sans-serif"><tspan          x="36.62925"          y="38.11058"          id="tspan4012"          style="font-size:7.5px">RESET</tspan></text>     <text        x="37.30674"        y="56.529602"        id="text4014"        xml:space="preserve"        style="font-size:40px;font-style:normal;font-weight:normal;line-height:125%;letter-spacing:0px;word-spacing:0px;fill:#000000;fill-opacity:1;stroke:none;font-family:sans-serif"><tspan          x="37.30674"          y="56.529602"          id="tspan4016"          style="font-size:7.5px">AGND</tspan></text>     <text        x="37.30674"        y="66.529602"        id="text4018"        xml:space="preserve"        style="font-size:40px;font-style:normal;font-weight:normal;line-height:125%;letter-spacing:0px;word-spacing:0px;fill:#000000;fill-opacity:1;stroke:none;font-family:sans-serif"><tspan          x="37.30674"          y="66.529602"          id="tspan4020"          style="font-size:7.5px">AREF</tspan></text>     <text        x="37.30674"        y="75.691559"        id="text4022"        xml:space="preserve"        style="font-size:40px;font-style:normal;font-weight:normal;line-height:125%;letter-spacing:0px;word-spacing:0px;fill:#000000;fill-opacity:1;stroke:none;font-family:sans-serif"><tspan          x="37.30674"          y="75.691559"          id="tspan4024"          style="font-size:7.5px">AVCC</tspan></text>     <text        x="37.141945"        y="102.08986"        id="text4026"        xml:space="preserve"        style="font-size:40px;font-style:normal;font-weight:normal;line-height:125%;letter-spacing:0px;word-spacing:0px;fill:#000000;fill-opacity:1;stroke:none;font-family:sans-serif"><tspan          x="37.141945"          y="102.08986"          id="tspan4028"          style="font-size:7.5px">XTAL1</tspan></text>     <text        x="37.141945"        y="120.52677"        id="text4030"        xml:space="preserve"        style="font-size:40px;font-style:normal;font-weight:normal;line-height:125%;letter-spacing:0px;word-spacing:0px;fill:#000000;fill-opacity:1;stroke:none;font-family:sans-serif"><tspan          x="37.141945"          y="120.52677"          id="tspan4032"          style="font-size:7.5px">XTAL2</tspan></text>     <text        x="36.944191"        y="146.08986"        id="text4034"        xml:space="preserve"        style="font-size:40px;font-style:normal;font-weight:normal;line-height:125%;letter-spacing:0px;word-spacing:0px;fill:#000000;fill-opacity:1;stroke:none;font-family:sans-serif"><tspan          x="36.944191"          y="146.08986"          id="tspan4036"          style="font-size:7.5px">GND</tspan></text>     <text        x="37.30674"        y="164.52676"        id="text4038"        xml:space="preserve"        style="font-size:40px;font-style:normal;font-weight:normal;line-height:125%;letter-spacing:0px;word-spacing:0px;fill:#000000;fill-opacity:1;stroke:none;font-family:sans-serif"><tspan          x="37.30674"          y="164.52676"          id="tspan4040"          style="font-size:7.5px">VCC</tspan></text>     <text        x="41.483047"        y="265.03427"        transform="translate(-5,-5)"        id="text4042"        xml:space="preserve"        style="font-size:40px;font-style:normal;font-weight:normal;line-height:125%;letter-spacing:0px;word-spacing:0px;fill:#000000;fill-opacity:1;stroke:none;font-family:sans-serif"><tspan          x="41.483047"          y="265.03427"          id="tspan4044"></tspan></text>     <text        x="33.26757"        y="261.03787"        id="text4046"        xml:space="preserve"        style="font-size:40px;font-style:normal;font-weight:normal;line-height:125%;letter-spacing:0px;word-spacing:0px;fill:#000000;fill-opacity:1;stroke:none;font-family:sans-serif"><tspan          x="33.26757"          y="261.03787"          id="tspan4048"          style="font-size:7.5px">ATMEGA8</tspan></text>   </g> </svg>