<?xml version="1.0" encoding="UTF-8" standalone="no"?> <!-- Created with Inkscape (http://www.inkscape.org/) -->  <svg    xmlns:dc="http://purl.org/dc/elements/1.1/"    xmlns:cc="http://creativecommons.org/ns#"    xmlns:rdf="http://www.w3.org/1999/02/22-rdf-syntax-ns#"    xmlns:svg="http://www.w3.org/2000/svg"    xmlns="http://www.w3.org/2000/svg"    version="1.1"    width="308.83362"    height="123.34399"    id="svg2">   <defs      id="defs4" />   <metadata      id="metadata7">     <rdf:RDF>       <cc:Work          rdf:about="">         <dc:format>image/svg+xml</dc:format>         <dc:type            rdf:resource="http://purl.org/dc/dcmitype/StillImage" />         <dc:title></dc:title>       </cc:Work>     </rdf:RDF>   </metadata>   <g      transform="translate(-236.55353,-229.71667)"      id="layer1">     <rect        width="68.185295"        height="37.880722"        x="247.55353"        y="243.82584"        id="rect3046"        style="fill:#0000ff;fill-opacity:0.56345179;fill-rule:evenodd;stroke:#000000;stroke-width:2;stroke-linecap:butt;stroke-linejoin:round;stroke-miterlimit:4;stroke-opacity:1;stroke-dasharray:none" />     <rect        width="68.185295"        height="97.984833"        x="356.45294"        y="244.07584"        id="rect3052"        style="fill:#ff0000;fill-rule:evenodd;stroke:#000000;stroke-width:2;stroke-linecap:butt;stroke-linejoin:round;stroke-miterlimit:4;stroke-opacity:1;stroke-dasharray:none" />     <path        d="m 451.86259,259.65721 -1.44809,-0.83626 0,0.59655 -7.40156,0 1.44117,-1.52261 c 0.12265,-0.0983 0.28312,-0.16727 0.44819,-0.17109 0.6678,0 1.06437,-1.8e-4 1.21034,-4.1e-4 0.0989,0.28191 0.36474,0.48539 0.68071,0.48539 0.39972,0 0.72411,-0.32436 0.72411,-0.72423 0,-0.40004 -0.32436,-0.72429 -0.72411,-0.72429 -0.31597,0 -0.58176,0.20336 -0.68071,0.48504 l -1.19616,-2e-4 c -0.32418,0 -0.66389,0.17787 -0.8801,0.38638 0.006,-0.006 0.0121,-0.0128 -4e-4,1.1e-4 -0.005,0.005 -1.52903,1.61528 -1.52903,1.61528 -0.12239,0.0982 -0.28278,0.16669 -0.44774,0.17063 l -0.8373,0 c -0.11098,-0.55313 -0.59944,-0.96988 -1.18536,-0.96988 -0.66803,0 -1.20953,0.54151 -1.20953,1.20933 0,0.66803 0.5415,1.20956 1.20953,1.20956 0.58604,0 1.07449,-0.41709 1.18548,-0.97069 l 0.82263,0 c 0.002,0 0.004,1.2e-4 0.006,0 l 1.8195,0 c 0.16464,0.004 0.32483,0.0728 0.4471,0.1711 0,0 1.52411,1.61001 1.52883,1.61522 0.0122,0.0129 0.006,0.006 1.1e-4,1.1e-4 0.21622,0.20849 0.55606,0.38624 0.88031,0.38624 l 1.15275,-2e-4 0,0.48553 1.44846,0 0,-1.44832 -1.44846,0 0,0.4849 c 0,0 -0.30361,-5e-4 -1.16687,-5e-4 -0.16511,-0.004 -0.32575,-0.0727 -0.44835,-0.17098 l -1.44148,-1.5229 5.59152,0 0,0.5975 L 451.86259,259.65721 Z"        id="path1334" />     <text        x="268.34409"        y="265.57367"        id="text3866"        xml:space="preserve"        style="font-size:7.72295475px;font-style:normal;font-weight:normal;line-height:125%;letter-spacing:0px;word-spacing:0px;fill:#000000;fill-opacity:1;stroke:none;font-family:sans-serif"><tspan          x="268.34409"          y="265.57367"          id="tspan3868"          style="font-style:normal;font-variant:normal;font-weight:bold;font-stretch:normal;fill:#000000;font-family:Verdana;-inkscape-font-specification:Verdana">GY-80</tspan></text>     <path        d="m 347.32361,269.49691 8.12932,-9.83986 -8.12932,-9.83986 0,5.67716 -22.45546,0 0,-5.67716 -8.12932,9.83986 8.12932,9.83986 0,-5.67716 L 347.32361,263.81975 Z"        id="path3887"        style="fill:none;stroke:#000000;stroke-width:1;stroke-linecap:round;stroke-linejoin:round;stroke-miterlimit:4;stroke-opacity:1;stroke-dasharray:none" />     <text        x="366.96191"        y="290.33051"        id="text3898"        xml:space="preserve"        style="font-size:7.72295475px;font-style:normal;font-weight:normal;line-height:125%;letter-spacing:0px;word-spacing:0px;fill:#000000;fill-opacity:1;stroke:none;font-family:sans-serif"><tspan          x="366.96191"          y="290.33051"          id="tspan3900"          style="font-style:normal;font-variant:normal;font-weight:bold;font-stretch:normal;fill:#000000;font-family:Verdana;-inkscape-font-specification:Verdana">Stellaris</tspan><tspan          x="366.96191"          y="299.98419"          id="tspan3902"          style="font-style:normal;font-variant:normal;font-weight:bold;font-stretch:normal;fill:#000000;font-family:Verdana;-inkscape-font-specification:Verdana">Launchpad</tspan></text>     <text        x="330.93628"        y="262.15964"        id="text3916"        xml:space="preserve"        style="font-size:20px;font-style:normal;font-weight:normal;line-height:125%;letter-spacing:0px;word-spacing:0px;fill:#000000;fill-opacity:1;stroke:none;font-family:sans-serif"><tspan          x="330.93628"          y="262.15964"          id="tspan3918"          style="font-size:6.875px">SPI</tspan></text>     <path        d="m 456.57254,269.4969 8.12931,-9.83986 -8.12931,-9.83986 0,5.67716 -22.45547,0 0,-5.67716 -8.12931,9.83986 8.12931,9.83986 0,-5.67716 L 456.57254,263.81974 Z"        id="path3924"        style="fill:none;stroke:#000000;stroke-width:1;stroke-linecap:round;stroke-linejoin:round;stroke-miterlimit:4;stroke-opacity:1;stroke-dasharray:none" />     <rect        width="68.185295"        height="37.880722"        x="466.20184"        y="240.71667"        id="rect3926"        style="fill:#ffffff;fill-rule:evenodd;stroke:#000000;stroke-width:2;stroke-linecap:butt;stroke-linejoin:round;stroke-miterlimit:4;stroke-opacity:1;stroke-dasharray:none" />     <text        x="494.48718"        y="262.46454"        id="text3928"        xml:space="preserve"        style="font-size:7.72295475px;font-style:normal;font-weight:normal;line-height:125%;letter-spacing:0px;word-spacing:0px;fill:#000000;fill-opacity:1;stroke:none;font-family:sans-serif"><tspan          x="494.48718"          y="262.46454"          id="tspan3930"          style="font-style:normal;font-variant:normal;font-weight:bold;font-stretch:normal;fill:#000000;font-family:Verdana;-inkscape-font-specification:Verdana">PC</tspan></text>   </g> </svg>